<?xml version="1.0" standalone="no"?>
<!DOCTYPE svg PUBLIC "-//W3C//DTD SVG 1.1//EN" "http://www.w3.org/Graphics/SVG/1.1/DTD/svg11.dtd" >
<svg xmlns="http://www.w3.org/2000/svg">
<metadata></metadata>
<defs>
<font id="beethreeregular" horiz-adv-x="407" >
<font-face units-per-em="2048" ascent="1366" descent="-682" />
<missing-glyph horiz-adv-x="149" />
<glyph unicode="&#xfb01;" horiz-adv-x="444" d="M18 819v88h64v295q0 166 115 166q41 0 59 -18v-84q-15 12 -39 12q-19 0 -26 -10t-7 -39v-324h68v-86h-68v-819h-104v819h-62zM283 1165q0 28 16.5 45t44.5 17q27 0 43 -17t16 -45q0 -26 -16.5 -42.5t-42.5 -16.5q-28 0 -44.5 16.5t-16.5 42.5zM301 0v907h96v-907h-96z " />
<glyph unicode="&#xfb02;" horiz-adv-x="448" d="M18 819v88h64v295q0 166 115 166q41 0 59 -18v-84q-15 12 -39 12q-19 0 -26 -10t-7 -39v-324h68v-86h-68v-819h-104v819h-62zM311 0v1366h97v-1366h-97z" />
<glyph horiz-adv-x="2048" />
<glyph horiz-adv-x="2048" />
<glyph unicode="&#xd;" horiz-adv-x="2048" />
<glyph unicode=" "  horiz-adv-x="149" />
<glyph unicode="&#x09;" horiz-adv-x="149" />
<glyph unicode="&#xa0;" horiz-adv-x="149" />
<glyph unicode="!" horiz-adv-x="210" d="M41 59q0 29 17.5 46.5t47.5 17.5q31 0 48.5 -18.5t17.5 -49.5q0 -28 -17.5 -45.5t-45.5 -17.5q-31 0 -49.5 18t-18.5 49zM53 1366h113l-27 -1141h-61z" />
<glyph unicode="&#x22;" horiz-adv-x="176" d="M43 1108v244h35v-244h-35zM102 1108v244h35v-244h-35z" />
<glyph unicode="#" horiz-adv-x="684" d="M41 451v106h113l26 270h-104v107h112l41 432h109l-41 -432h121l41 432h108l-39 -432h113v-107h-123l-26 -270h116v-106h-127l-41 -451h-108l41 451h-121l-41 -451h-109l43 451h-104zM262 557h121l25 270h-121z" />
<glyph unicode="$" horiz-adv-x="335" d="M41 782v97h86v-88q0 -34 9 -47t32 -13q21 0 30 12.5t9 42.5v76q0 29 -10.5 44t-36.5 24l-8 2l-13 4l-14 6q-52 17 -68 38.5t-16 72.5v96q0 118 90 133v88h76v-88q88 -9 88 -111v-114h-90v104v8q0 39 -37 39q-39 0 -39 -47v-78l2 -12q0 -25 7.5 -36.5t27.5 -20.5l59 -23 q36 -14 52 -36t16 -60v-113q0 -56 -22.5 -88t-63.5 -35v-102h-78v105q-88 6 -88 120z" />
<glyph unicode="%" horiz-adv-x="673" d="M41 0l508 1368h84l-510 -1368h-82zM55 897v336q0 72 27.5 104.5t87.5 32.5t86.5 -28t26.5 -91v-358q0 -67 -27 -98t-86 -31q-40 0 -69.5 16t-39.5 45q-6 18 -6 72zM135 891q0 -37 6.5 -48.5t28.5 -11.5t29.5 11.5t7.5 42.5v358q0 31 -6.5 41t-28.5 10t-29.5 -12t-7.5 -47 v-344zM375 117v338q0 71 28 103t89 32q58 0 84 -28t26 -91v-356q0 -69 -27 -100t-88 -31q-39 0 -67.5 16t-38.5 45q-6 18 -6 72zM455 111q0 -37 7 -48.5t30 -11.5q20 0 27 11t7 42v359q0 31 -6.5 41t-27.5 10q-22 0 -29.5 -12t-7.5 -47v-344z" />
<glyph unicode="&#x26;" horiz-adv-x="487" d="M41 156v299q0 76 15 133t53 129q-16 66 -20.5 97t-4.5 79v330q0 72 32 111.5t91 39.5q106 0 106 -135v-231q0 -58 -12 -100.5t-47 -106.5l-57 -107l84 -325v374h165v-92h-75v-506q3 -20 25 -35.5t48 -15.5v-96q-19 -8 -28 -8q-33 0 -92 53q-30 -36 -57.5 -49.5 t-69.5 -13.5q-156 0 -156 176zM135 166q0 -49 14 -69.5t48 -20.5q57 0 69 67l-131 406v-383zM172 821q30 57 41.5 100.5t11.5 104.5v225q0 26 -5 35.5t-19 9.5q-15 0 -22 -14.5t-7 -50.5v-410z" />
<glyph unicode="'" horiz-adv-x="116" d="M41 1108v244h35v-244h-35z" />
<glyph unicode="(" horiz-adv-x="233" d="M41 23v1333q0 80 29 110t104 27h14v-78q-39 0 -49 -9t-10 -44v-1331q0 -41 11 -55.5t42 -12.5h11v-78h-9q-85 0 -114 28t-29 110z" />
<glyph unicode=")" horiz-adv-x="233" d="M41 -37h8q32 -1 43.5 13t11.5 55v1331q0 35 -10.5 44t-50.5 9v78h14q77 3 106.5 -26.5t29.5 -110.5v-1333q0 -82 -30 -110t-116 -28h-6v78z" />
<glyph unicode="*" horiz-adv-x="270" d="M41 1255q0 11 9 18.5t24 8.5l53 10l-31 -39q-15 -20 -30 -20q-9 0 -17 6.5t-8 15.5zM41 1339q0 9 6.5 16t15.5 7q18 0 29 -16l35 -41l-49 6q-37 3 -37 28zM111 1378q0 12 6.5 19.5t17.5 7.5t18 -7.5t7 -19.5q0 -6 -4 -14v-4l-21 -49l-18 45q-6 12 -6 22zM113 1219 q0 10 4 18l18 49l19 -45q6 -12 6 -22q0 -11 -7.5 -19t-17.5 -8q-22 0 -22 27zM145 1292l50 -6q36 -6 36 -29q0 -9 -7 -16.5t-15 -7.5q-16 0 -31 18zM145 1303l31 38q13 21 31 21q9 0 15.5 -7t6.5 -16q0 -21 -30 -28z" />
<glyph unicode="+" horiz-adv-x="528" d="M41 610v92h176v209h96v-209h174v-92h-174v-211h-96v211h-176z" />
<glyph unicode="," horiz-adv-x="182" d="M41 -82l27 197h73l-47 -197h-53z" />
<glyph unicode="-" horiz-adv-x="319" d="M41 610v92h238v-92h-238z" />
<glyph unicode="." horiz-adv-x="200" d="M41 55q0 28 16.5 45t44.5 17t44 -17t16 -45q0 -26 -17 -42.5t-43 -16.5q-28 0 -44.5 16.5t-16.5 42.5z" />
<glyph unicode="/" horiz-adv-x="661" d="M41 0l496 1372h84l-496 -1372h-84z" />
<glyph unicode="0" horiz-adv-x="393" d="M41 186v994q0 96 27 137q42 57 133 57q97 0 135 -71q14 -35 14 -113v-1022q0 -92 -36.5 -134t-118.5 -42q-83 0 -118.5 45t-35.5 149zM135 172q0 -55 13.5 -75.5t48.5 -20.5q34 0 45.5 19.5t11.5 76.5v1024q0 51 -13 71.5t-46 20.5q-34 0 -47 -19.5t-13 -70.5v-1026z" />
<glyph unicode="1" d="M152 0v1366h104v-1366h-104z" />
<glyph unicode="2" d="M43 911v291q0 87 33 123q46 49 127 49q77 0 118 -44.5t41 -127.5v-358q0 -59 -9.5 -84t-57.5 -92l-92 -125l-8 -13q-31 -40 -38 -61t-7 -74v-301h180v-94h-285v412q0 61 12.5 94.5t55.5 89.5l96 123q37 47 45 72t8 88v313q0 48 -13.5 69t-45.5 21t-44 -17.5t-12 -66.5 v-287h-104z" />
<glyph unicode="3" d="M41 186v244h106v-244q0 -59 13 -80.5t49 -21.5q41 0 53 43q2 10 2 70v381q0 57 -14.5 74.5t-61.5 17.5h-43v98h48q43 0 57 19.5t14 80.5v338q0 46 -11.5 62t-45.5 16q-32 0 -49 -23t-13 -61l2 -12v-262h-106v241q0 96 22 136q42 73 144 73q160 0 160 -172v-354 q0 -63 -20.5 -87.5t-86.5 -43.5q69 -17 88 -42t19 -97v-404q0 -94 -40.5 -139t-125.5 -45t-122.5 45.5t-37.5 148.5z" />
<glyph unicode="4" d="M29 387v92l159 887h125v-881h64v-98h-64v-387h-102v387h-182zM125 485h86l16 693z" />
<glyph unicode="5" d="M45 225v205h100v-227q0 -6 -2 -10q-3 -21 2 -52.5t13 -42.5q11 -20 45 -20q35 0 46 20t11 82v441q0 63 -12.5 86.5t-44.5 23.5q-60 0 -72 -96h-86v731h268v-98h-168v-494q36 47 88 47q44 0 76.5 -24.5t44.5 -67.5q8 -27 8 -111v-403q0 -118 -20 -154q-38 -69 -135 -69 q-121 0 -152 94q-10 31 -10 139z" />
<glyph unicode="6" d="M45 219v936q0 102 25 148q41 71 139 71q82 0 117.5 -44.5t35.5 -145.5v-246h-100v231q0 64 -12.5 88.5t-44.5 24.5q-68 0 -62 -113v-16v-387q15 21 42 34t57 13q85 0 110 -86q8 -27 8 -106v-455q0 -89 -38.5 -131.5t-120.5 -42.5q-88 0 -122 49t-34 178zM143 168 q0 -92 60 -92q32 0 46.5 25.5t14.5 82.5v461q0 82 -53 82q-22 0 -40 -13t-24 -36q-4 -8 -4 -57v-453z" />
<glyph unicode="7" d="M74 1268v98h260v-92l-152 -1274h-98l149 1268h-159z" />
<glyph unicode="8" d="M47 168v414q0 60 21.5 90t72.5 39q-57 17 -75.5 45t-18.5 94v332q0 98 40.5 145t123.5 47q78 0 114.5 -39t36.5 -123v-374q0 -55 -21.5 -85t-70.5 -42q52 -6 71 -34t19 -99v-410q0 -176 -159 -176q-98 0 -138 65q-16 31 -16 111zM145 156q0 -41 13 -57.5t45 -16.5 q35 0 49 19t14 65v418q0 48 -13 67t-46 19q-42 0 -55 -33q-7 -12 -7 -64v-417zM147 842q0 -37 5 -47q13 -37 55 -37q32 0 46.5 21.5t14.5 68.5v352q0 51 -11.5 67.5t-45.5 16.5q-35 0 -49.5 -21t-14.5 -75v-346z" />
<glyph unicode="9" d="M45 184v244h100v-231q0 -65 12 -89t46 -24q37 0 49 26t12 103v387q-38 -47 -100 -47q-40 0 -68.5 22.5t-40.5 63.5q-8 27 -8 106v457q0 172 156 172q91 0 125 -48.5t34 -178.5v-936q0 -104 -24 -148q-41 -71 -139 -71q-82 0 -118 44.5t-36 147.5zM143 721q0 -82 54 -82 q47 0 63 49q0 1 0.5 7t1.5 20t2 30v453q0 92 -59 92q-32 0 -47 -25.5t-15 -82.5v-461z" />
<glyph unicode=":" horiz-adv-x="204" d="M41 55q0 28 16.5 45t44.5 17t44 -17t16 -45q0 -26 -17 -42.5t-43 -16.5q-28 0 -44.5 16.5t-16.5 42.5zM43 457q0 28 16.5 44.5t44.5 16.5t44 -16.5t16 -44.5q0 -26 -17 -43t-43 -17q-28 0 -44.5 16.5t-16.5 43.5z" />
<glyph unicode=";" horiz-adv-x="206" d="M41 -82l27 197h73l-47 -197h-53zM47 457q0 28 17 44.5t45 16.5t43.5 -16.5t15.5 -44.5q0 -26 -16.5 -43t-42.5 -17q-28 0 -45 17t-17 43z" />
<glyph unicode="&#x3c;" horiz-adv-x="542" d="M41 588v86l461 225v-104l-350 -164l350 -166v-103z" />
<glyph unicode="=" horiz-adv-x="528" d="M41 532v93h446v-93h-446zM41 713v92h446v-92h-446z" />
<glyph unicode="&#x3e;" horiz-adv-x="542" d="M41 362v103l350 166l-350 164v104l461 -225v-86z" />
<glyph unicode="?" horiz-adv-x="405" d="M41 932v250v12q-6 83 39.5 133.5t124.5 50.5q50 0 88 -20.5t55 -57.5q17 -42 17 -133v-237q0 -69 -13 -99q-1 -2 -3 -4.5t-7.5 -11.5t-15.5 -24l-9 -13l-57 -82l-8 -10q-25 -32 -25 -49l-2 -37v-381h-94v342v8q2 69 9.5 99t33.5 67l53 82q2 4 6 6q20 29 25 47t4 56 l-2 262v14q0 47 -13 67.5t-44 20.5q-33 0 -46.5 -20.5t-13.5 -71.5v-266h-102zM121 57q0 28 18 46t47 18t47.5 -18.5t18.5 -49.5q0 -28 -18.5 -45.5t-47.5 -17.5t-47 19t-18 48z" />
<glyph unicode="@" horiz-adv-x="907" d="M41 678q0 199 56.5 362t155.5 256t220 93q170 0 281.5 -166.5t111.5 -421.5q0 -148 -37.5 -265.5t-107.5 -187.5q-69 -72 -127 -72q-28 0 -43.5 27t-15.5 74v16q-49 -108 -127 -108q-80 0 -129.5 91t-49.5 240q0 184 64.5 305t161.5 121q98 0 139 -143l16 119h68 l-60 -539q-6 -67 -6 -71q0 -8 12 -13.5t29 -5.5t27.5 12t36.5 62q63 117 63 315q0 229 -86 374.5t-221 145.5q-95 0 -174 -81.5t-124.5 -223t-45.5 -311.5q0 -173 46 -314t126.5 -221.5t179.5 -80.5q77 0 138.5 48t125.5 158l86 -22q-82 -149 -161 -211t-189 -62 q-126 0 -226.5 89.5t-157 250t-56.5 361.5zM326 627q0 -107 28 -173.5t74 -66.5q61 0 100 93t39 239q0 102 -27.5 158.5t-76.5 56.5q-59 0 -98 -87.5t-39 -219.5z" />
<glyph unicode="A" horiz-adv-x="450" d="M27 0l114 1366h125l158 -1366h-113l-41 410h-108l-29 -410h-106zM170 516h88l-51 578z" />
<glyph unicode="B" horiz-adv-x="413" d="M41 0v1366h119q119 0 166 -47.5t47 -167.5v-303q0 -148 -140 -148q85 -11 111.5 -41.5t26.5 -119.5v-330q0 -119 -56 -172q-24 -22 -50.5 -29.5t-84.5 -7.5h-139zM150 94h22q51 0 72.5 24.5t21.5 82.5v346q0 54 -20 80q-18 24 -53 24h-5q-33 -2 -38 -2v-555zM150 745h30 q50 0 68 23t18 86v305q0 63 -17 85t-65 22h-34v-521z" />
<glyph unicode="C" horiz-adv-x="399" d="M41 205v966q0 201 166 201q82 0 121 -49.5t39 -153.5v-286h-103v293q-6 67 -8 69q-13 33 -49 33q-35 0 -48.5 -22t-13.5 -80v-996q0 -51 13.5 -71.5t46.5 -20.5q34 0 46.5 21t12.5 77v301h103v-292q0 -101 -29 -140q-46 -65 -133 -65q-47 0 -87 24t-59 64q-18 40 -18 127 z" />
<glyph unicode="D" d="M41 0v1366h154q96 0 134 -44t38 -153v-944q0 -131 -48.5 -178t-181.5 -47h-96zM145 100h29q54 0 70 22.5t16 94.5v961q0 59 -16 76.5t-68 17.5h-31v-1172z" />
<glyph unicode="E" horiz-adv-x="329" d="M41 0v1366h246v-102h-137v-514h139v-97h-139v-555h139v-98h-248z" />
<glyph unicode="F" horiz-adv-x="325" d="M41 0v1366h250v-102h-141v-514h133v-97h-133v-653h-109z" />
<glyph unicode="G" horiz-adv-x="415" d="M41 186v971q0 112 41 164.5t129 52.5q85 0 124.5 -50.5t39.5 -156.5v-276h-109v272q0 68 -12 92.5t-47 24.5q-60 0 -60 -88v-1008q0 -57 13 -78.5t47 -21.5q37 0 53 39q2 4 4 41q0 12 2 18v408h-69v102h176v-512q0 -190 -164 -190q-88 0 -128 46.5t-40 149.5z" />
<glyph unicode="H" horiz-adv-x="411" d="M41 0v1366h104v-612h119v612h107v-1366h-107v647h-119v-647h-104z" />
<glyph unicode="I" horiz-adv-x="186" d="M41 0v1366h104v-1366h-104z" />
<glyph unicode="J" horiz-adv-x="385" d="M23 186v293h102v-301q0 -47 6 -65q17 -33 51 -33q31 0 44.5 21t13.5 73v1192h104v-1169q0 -76 -10 -107q-13 -43 -57 -71.5t-95 -28.5q-44 0 -86 24t-57 58q-16 33 -16 114z" />
<glyph unicode="K" horiz-adv-x="432" d="M41 0v1366h106v-578l134 578h108l-131 -508l133 -858h-102l-99 674l-43 -156v-518h-106z" />
<glyph unicode="L" horiz-adv-x="327" d="M41 0v1366h109v-1268h155v-98h-264z" />
<glyph unicode="M" horiz-adv-x="606" d="M41 0v1366h123l143 -1122l139 1122h119v-1366h-98v1042l-115 -1042h-82l-127 1040v-1040h-102z" />
<glyph unicode="N" horiz-adv-x="454" d="M41 0v1366h113l163 -973v973h97v-1366h-103l-172 1001v-1001h-98z" />
<glyph unicode="O" horiz-adv-x="423" d="M41 207v956q0 78 25 129q20 37 62 59.5t91 22.5q51 0 90 -21.5t56 -58.5q18 -38 18 -125v-970q0 -207 -170 -207q-56 0 -102 28.5t-58 71.5q-12 41 -12 115zM143 178q0 -52 16.5 -76t51.5 -24q34 0 49.5 25.5t15.5 82.5v988q0 62 -12.5 82t-52.5 20t-54 -25t-14 -98v-975 z" />
<glyph unicode="P" horiz-adv-x="397" d="M41 0v1366h139q99 0 142 -41t43 -135v-397q0 -98 -41 -144.5t-127 -46.5h-47v-602h-109zM150 698h34q50 0 64 18t14 81v377q0 57 -17.5 77.5t-66.5 20.5q-16 0 -28 -2v-572z" />
<glyph unicode="Q" horiz-adv-x="428" d="M41 207v981q0 85 49 135.5t131 50.5q85 0 125.5 -48.5t40.5 -149.5v-977q0 -71 -13 -108t-50 -66l51 -123l-92 -45l-56 139q-8 -4 -22 -4q-48 0 -91.5 29t-58.5 71q-14 43 -14 115zM147 178q0 -52 16.5 -76t51.5 -24q34 0 50 25.5t16 82.5v994q0 35 -5 65q-12 37 -59 37 q-38 0 -54 -24t-16 -84v-996z" />
<glyph unicode="R" horiz-adv-x="403" d="M41 0v1366h145q96 0 137.5 -48.5t41.5 -160.5v-303q0 -73 -21 -106t-72 -41q56 -19 74.5 -58t18.5 -137v-385q0 -62 3.5 -83t18.5 -44h-96q-29 32 -29 104v428q0 68 -20.5 93.5t-75.5 25.5h-16v-651h-109zM150 754q10 -4 22 -4q51 0 72.5 24.5t21.5 83.5v316q0 54 -20 76 t-70 22q-14 0 -26 -2v-516z" />
<glyph unicode="S" horiz-adv-x="401" d="M41 195v254h106v-265q0 -58 12 -79t44 -21q44 0 53 39q4 8 4 63v281q0 51 -7 71.5t-32 43.5l-100 90q-46 41 -63 82t-17 110v297q0 111 40 162t128 51q78 0 113.5 -43t35.5 -137v-283h-98v279q-3 56 -6 59q-16 31 -49 31q-59 0 -59 -69q0 -6 1 -13v-8v-332v-6 q0 -41 9 -61.5t37 -45.5l112 -106q35 -34 45 -59.5t10 -83.5v-297q0 -103 -22 -140q-42 -67 -135 -67q-83 0 -122.5 49.5t-39.5 153.5z" />
<glyph unicode="T" horiz-adv-x="370" d="M27 1268v98h315v-98h-111v-1268h-104v1268h-100z" />
<glyph unicode="U" horiz-adv-x="421" d="M41 221v1145h106v-1165q0 -63 14.5 -87t51.5 -24t49 24.5t12 96.5v1155h107v-1157q0 -121 -33 -160q-45 -57 -139 -57q-48 0 -86 19t-57 52q-25 42 -25 158z" />
<glyph unicode="V" horiz-adv-x="442" d="M27 1366h112l72 -1116l96 1116h107l-148 -1366h-110z" />
<glyph unicode="W" horiz-adv-x="681" d="M27 1366h102l74 -1071l88 1071h104l80 -1073l76 1073h102l-114 -1366h-109l-86 1077l-92 -1077h-105z" />
<glyph unicode="X" horiz-adv-x="456" d="M27 1366h106l92 -543l64 543h106l-104 -668l137 -698h-109l-94 567l-69 -567h-105l111 702z" />
<glyph unicode="Y" horiz-adv-x="415" d="M27 1366h104l78 -612l78 612h100l-131 -799v-567h-100v567z" />
<glyph unicode="Z" horiz-adv-x="374" d="M41 1270v96h276v-74l-167 -1196h184v-96h-287v102l164 1168h-170z" />
<glyph unicode="[" horiz-adv-x="303" d="M41 -346v1712h221v-106h-115v-1500h115v-106h-221z" />
<glyph unicode="\" horiz-adv-x="661" d="M41 1372h84l496 -1372h-84z" />
<glyph unicode="]" horiz-adv-x="303" d="M41 -240h115v1500h-115v106h221v-1712h-221v106z" />
<glyph unicode="^" horiz-adv-x="645" d="M41 776l235 590h91l237 -590h-88l-194 475l-195 -475h-86z" />
<glyph unicode="_" horiz-adv-x="585" d="M0 -154h586v-88h-586v88z" />
<glyph unicode="`" horiz-adv-x="382" d="M31 1294h106l111 -252h-82z" />
<glyph unicode="a" horiz-adv-x="382" d="M41 172v215q0 170 117 170q45 0 71 -29v232q0 41 -9.5 56t-35.5 15q-25 0 -38.5 -18.5t-10.5 -46.5l2 -12v-150h-96v141q0 84 25 119q43 56 124 56q43 0 77.5 -18.5t47.5 -49.5q13 -29 13 -96v-662q0 -54 2 -66.5t12 -27.5h-88q-6 8 -18 47q-41 -53 -99 -53q-60 0 -82 53 q-14 28 -14 125zM137 145q0 -34 8.5 -47.5t30.5 -13.5q23 0 38 14t15 37v289q0 25 -13 39t-36 14q-25 0 -34 -15t-9 -56v-261z" />
<glyph unicode="b" horiz-adv-x="370" d="M41 0v1358h100v-477q38 30 80 30q57 0 83 -40t26 -130v-571q0 -94 -25 -133q-32 -43 -90 -43q-45 0 -82 37l-8 -31h-84zM139 115q16 -37 49 -37q26 0 35.5 18t9.5 66v565q0 53 -9 73.5t-34 20.5q-19 0 -29 -10t-22 -39v-657z" />
<glyph unicode="c" horiz-adv-x="378" d="M41 172v535q0 104 22 141q20 32 55.5 51t76.5 19q143 0 143 -162v-187h-98v168q-2 17 -4 32t-4 23l-1 7q-12 26 -43 26q-28 0 -38.5 -16t-10.5 -59v-607q0 -39 12 -56t39 -17q28 0 39 17.5t11 66.5v172h98v-150q0 -102 -36.5 -150.5t-113.5 -48.5q-47 0 -82.5 20.5 t-50.5 57.5q-14 35 -14 117z" />
<glyph unicode="d" horiz-adv-x="370" d="M41 170v571q0 91 25.5 130.5t83.5 39.5q39 0 79 -30v481h101v-1362h-84l-8 35q-42 -39 -88 -39q-57 0 -83 41t-26 133zM137 162q0 -48 9.5 -66t35.5 -18q22 0 43 24l6 7v682q-4 4 -6 4q-14 14 -22 20q-6 6 -23 6q-25 0 -34 -20t-9 -74v-565z" />
<glyph unicode="e" horiz-adv-x="378" d="M41 156v602q0 87 38 128.5t118 41.5q139 0 139 -131v-359h-193v-270q0 -52 10.5 -70t41.5 -18q29 0 37 15t8 69v188h98v-200q0 -160 -145 -160q-152 0 -152 164zM141 756l2 -11v-213h95v230v10v10q0 23 -8 35q-10 14 -35 14q-26 0 -39 -16q-16 -22 -16 -48q0 -5 1 -11z " />
<glyph unicode="f" horiz-adv-x="270" d="M18 819v88h64v295q0 166 115 166q41 0 59 -18v-84q-15 12 -39 12q-19 0 -26 -10t-7 -39v-324h68v-86h-68v-819h-104v819h-62z" />
<glyph unicode="g" horiz-adv-x="372" d="M41 184v568q0 74 27.5 114.5t76.5 40.5q24 0 42 -7.5t53 -31.5v39h92v-1206q0 -85 -36.5 -128.5t-107.5 -43.5q-41 0 -75.5 18.5t-53.5 49.5q-16 31 -16 98v201h98v-199q0 -47 10.5 -65.5t36.5 -18.5q32 0 41 33q1 1 4 45v342q-23 -22 -37.5 -28.5t-39.5 -6.5 q-62 0 -88.5 43t-26.5 143zM141 147q0 -35 9.5 -50t31.5 -15q51 0 51 80v604q-2 18 -2 31q-3 10 -16 18t-27 8q-26 0 -36.5 -18.5t-10.5 -63.5v-594z" />
<glyph unicode="h" horiz-adv-x="368" d="M41 0v1366h94v-487q44 39 88 39q54 0 79.5 -35t25.5 -109v-774h-95v741q0 54 -9.5 73.5t-35.5 19.5q-20 0 -32 -12t-23 -40v-782h-92z" />
<glyph unicode="i" horiz-adv-x="190" d="M29 1128q0 28 16.5 45t44.5 17t44 -17t16 -45q0 -26 -17 -42.5t-43 -16.5q-28 0 -44.5 16.5t-16.5 42.5zM47 0v907h96v-907h-96z" />
<glyph unicode="j" horiz-adv-x="188" d="M-57 -356q20 -17 41 -17q41 0 55 39q4 8 4 51v1190h96v-1163q0 -104 -31 -151.5t-100 -47.5q-38 0 -65 21v78zM25 1128q0 28 16.5 45t44.5 17t43.5 -16.5t15.5 -45.5q0 -26 -16.5 -42.5t-42.5 -16.5q-28 0 -44.5 16.5t-16.5 42.5z" />
<glyph unicode="k" horiz-adv-x="391" d="M41 0v1366h94v-854l109 391h106l-108 -350l98 -553h-94l-68 395l-45 -121v-274h-92z" />
<glyph unicode="l" horiz-adv-x="178" d="M41 0v1366h96v-1366h-96z" />
<glyph unicode="m" horiz-adv-x="548" d="M41 0v907h98v-47q27 29 46.5 40t45.5 11q51 0 78 -55q43 55 103 55q36 0 61 -20t31 -53q4 -36 4 -70v-768h-92v748q0 54 -7.5 68.5t-35.5 14.5q-36 0 -49 -30v-801h-99v770q0 35 -8.5 49.5t-28.5 14.5q-16 0 -25.5 -6.5t-23.5 -30.5l-2 -4v-793h-96z" />
<glyph unicode="n" horiz-adv-x="366" d="M41 0v907h94v-35q26 25 44 33t44 8q103 0 103 -143v-770h-97v739q0 54 -8 73t-33 19q-39 0 -51 -51v-780h-96z" />
<glyph unicode="o" horiz-adv-x="391" d="M41 170v578q0 94 35.5 133t120.5 39q81 0 117 -38.5t36 -125.5v-561q0 -109 -37 -156t-123 -47q-78 0 -113.5 42t-35.5 136zM139 158q0 -41 13.5 -59.5t42.5 -18.5q30 0 41.5 17.5t11.5 62.5v585q0 51 -10.5 68.5t-42.5 17.5q-31 0 -43.5 -18t-12.5 -63v-592z" />
<glyph unicode="p" horiz-adv-x="370" d="M41 -455v1362h86l8 -39q38 41 94 41q62 0 86 -49q15 -30 15 -123v-571q0 -88 -25.5 -125t-85.5 -37q-41 0 -82 35v-494h-96zM139 135q3 -49 49 -49q26 0 35.5 20t9.5 74v565q0 44 -4 54q-10 30 -43 30q-17 0 -30.5 -10.5t-16.5 -25.5v-658z" />
<glyph unicode="q" horiz-adv-x="370" d="M41 166v571q0 98 25 133q37 43 92 43q41 0 80 -36l6 30h86v-1362h-99v488q-36 -33 -81 -33q-57 0 -83 39t-26 127zM141 166q0 -80 43 -80q40 0 49 49v658q-9 36 -47 36q-26 0 -35.5 -18t-9.5 -66v-565v-14z" />
<glyph unicode="r" horiz-adv-x="278" d="M41 0v907h92v-53q27 30 44.5 40.5t41.5 10.5t39 -10v-88q-18 6 -33 6q-38 0 -61 -23t-23 -61v-729h-100z" />
<glyph unicode="s" horiz-adv-x="376" d="M41 592v145q0 89 22 123q42 60 127 60q146 0 146 -158v-162h-98v160q0 41 -11 58.5t-37 17.5q-30 0 -43 -19q-6 -9 -9.5 -25.5t-0.5 -23.5q2 -2 2 -6v-152q0 -4 -2 -12q-3 -27 7.5 -43t41.5 -35l68 -39q41 -23 57.5 -49.5t16.5 -69.5v-8v-196q0 -166 -146 -166 q-139 0 -139 164v166h96v-170q0 -42 9.5 -57t37.5 -15q29 0 37 14t8 64v166q0 41 -8 57t-37 33l-61 35q-49 29 -66.5 59t-17.5 84z" />
<glyph unicode="t" horiz-adv-x="274" d="M20 815v92h66v310h98v-310h70v-92h-70v-815h-98v815h-66z" />
<glyph unicode="u" horiz-adv-x="366" d="M41 139v768h96v-735q0 -53 8 -72.5t31 -19.5q37 0 53 37v790h97v-907h-93v41l-6 -6q-16 -11 -34 -25q-18 -12 -54 -12q-98 0 -98 141z" />
<glyph unicode="v" horiz-adv-x="372" d="M20 907h103l72 -696l53 696h104l-102 -907h-111z" />
<glyph unicode="w" horiz-adv-x="552" d="M20 907h105l41 -639l67 639h93l61 -649l43 649h102l-88 -907h-108l-60 623l-59 -623h-111z" />
<glyph unicode="x" horiz-adv-x="372" d="M20 0l101 446l-98 461h104l59 -364l68 364h98l-102 -446l94 -461h-104l-60 350l-63 -350h-97z" />
<glyph unicode="y" horiz-adv-x="374" d="M20 907h105l72 -661l55 661h102l-157 -1356h-91l50 422z" />
<glyph unicode="z" horiz-adv-x="333" d="M41 815v92h252v-82l-156 -733h146v-92h-240v80l147 735h-149z" />
<glyph unicode="{" horiz-adv-x="356" d="M41 453v112q40 19 55 61t15 134v356q0 149 42 216t134 67q16 0 28 -2v-113q-76 -1 -97 -37t-21 -164v-333q0 -99 -16.5 -150t-59.5 -90q43 -40 59.5 -93.5t16.5 -150.5v-323q0 -70 3.5 -107t17.5 -61t35.5 -30.5t61.5 -6.5v-115h-28q-95 0 -135.5 69t-40.5 232v336 q0 90 -15.5 133t-54.5 60z" />
<glyph unicode="|" horiz-adv-x="692" d="M272 -342v1708h148v-1708h-148z" />
<glyph unicode="}" horiz-adv-x="356" d="M41 -262q75 0 97 36.5t22 162.5v335q0 100 16 150t60 90q-43 40 -59.5 93t-16.5 151v321q0 92 -9 133.5t-33 57.5t-77 16v113q14 2 31 2q94 0 134 -70t40 -231v-336q0 -91 15.5 -134.5t53.5 -60.5v-112q-40 -17 -54.5 -58.5t-14.5 -134.5v-356q0 -149 -42 -216t-134 -67 h-29v115z" />
<glyph unicode="~" horiz-adv-x="686" d="M41 1208q44 103 82 147t82 44q26 0 54 -15.5t101 -70.5q59 -44 81 -57t36 -13q32 0 61 44.5t60 142.5l51 -99q-44 -113 -84 -163t-86 -50q-25 0 -48.5 14.5t-147.5 104.5q-48 37 -76 37q-31 0 -58.5 -41.5t-62.5 -142.5z" />
<glyph unicode="&#xa1;" horiz-adv-x="210" d="M41 1300q0 28 17.5 46t45.5 18q31 0 49.5 -18.5t18.5 -49.5q0 -29 -17.5 -46t-48.5 -17t-48 18t-17 49zM45 -8l27 1136h63l23 -1136h-113z" />
<glyph unicode="&#xa2;" horiz-adv-x="331" d="M41 793v319q0 78 19.5 115.5t68.5 52.5v94h76v-96q49 -13 67.5 -47t18.5 -109v-73h-86v98q0 35 -7.5 48t-29.5 13q-23 0 -32 -13.5t-9 -47.5v-354q0 -39 8 -52.5t31 -13.5q22 0 28.5 9.5t12.5 47.5v97h82v-80q0 -68 -19 -105q-24 -44 -65 -47v-96h-76v92q-52 15 -70 45.5 t-18 102.5z" />
<glyph unicode="&#xa3;" horiz-adv-x="532" d="M41 78q10 8 36 20t42 15q41 62 67.5 156t26.5 180q0 90 -29 186h-116v102h96q-23 115 -23 234v211q0 99 29 141q50 72 143 72q46 0 84.5 -21.5t57.5 -56.5q18 -32 18 -107v-270h-106v272q0 53 -12 72t-46 19t-46.5 -21.5t-12.5 -75.5v-229q0 -86 2.5 -119.5t17.5 -120.5 h131v-102h-106q27 -120 27 -203q0 -142 -80 -326l45 -12q20 -8 37 -8q47 0 59 35q4 6 6 69v242h103v-237q0 -103 -23 -142q-44 -69 -139 -69q-54 0 -113 20q-15 6 -39 6q-56 0 -100 -28z" />
<glyph unicode="&#xa4;" horiz-adv-x="780" d="M41 256l119 195q-60 138 -60 288q0 152 60 289l-119 199l55 90l119 -199q82 103 176 103q91 0 174 -99l117 195l53 -92l-117 -193q64 -137 64 -295q0 -152 -59 -286l116 -195l-53 -92l-117 194q-82 -104 -178 -104q-49 0 -90.5 24t-87.5 80l-117 -194zM190 737 q0 -140 59 -239t142 -99t142 99t59 239q0 138 -58.5 238t-138.5 100q-86 0 -145.5 -98.5t-59.5 -239.5z" />
<glyph unicode="&#xa5;" horiz-adv-x="401" d="M20 1366h105l78 -612l78 612h100l-123 -748h84v-81h-92v-91h92v-81h-92v-365h-100v365h-97v81h97v91h-97v81h88z" />
<glyph unicode="&#xa6;" horiz-adv-x="671" d="M272 313h125v-655h-125v655zM272 690v676h125v-676h-125z" />
<glyph unicode="&#xa7;" horiz-adv-x="645" d="M41 643q0 200 123 272q-55 89 -55 197q0 126 59 206.5t151 80.5q103 0 162.5 -93.5t61.5 -256.5h-90q-3 109 -37 166t-97 57q-51 0 -82.5 -44.5t-31.5 -115.5q0 -63 23 -102.5t96 -102.5q171 -150 225.5 -234t54.5 -200q0 -92 -34 -165.5t-91 -104.5q66 -98 66 -215 q0 -135 -61.5 -219t-159.5 -84q-109 0 -169.5 97.5t-60.5 270.5h88q6 -239 142 -239q57 0 91 47.5t34 124.5t-38 129.5t-192 187.5q-102 90 -140 162.5t-38 177.5zM127 657q0 -64 37 -119t151 -159q16 -15 36.5 -33.5t25.5 -23.5q35 -38 47 -46q43 23 67.5 70t24.5 105 q0 60 -24 104.5t-95 118.5q-98 98 -180 164q-90 -53 -90 -181z" />
<glyph unicode="&#xa8;" horiz-adv-x="485" d="M68 1135q0 28 19 46.5t48 18.5q26 0 45 -19.5t19 -45.5q0 -28 -19 -47t-47 -19t-46.5 19t-18.5 47zM287 1135q0 28 19 46.5t48 18.5q26 0 45 -19.5t19 -45.5q0 -28 -19 -47t-47 -19t-46.5 19t-18.5 47z" />
<glyph unicode="&#xa9;" horiz-adv-x="1503" d="M41 682q0 195 95.5 358.5t261 258t362.5 94.5q189 0 351 -96t256.5 -260t94.5 -355q0 -192 -95 -355.5t-258.5 -258.5t-356.5 -95q-144 0 -275.5 56t-227 151t-152 226.5t-56.5 275.5zM139 682q0 -166 82 -307.5t223 -224t306 -82.5q166 0 306.5 82t222 223.5t81.5 308.5 q0 166 -81 308t-220 225t-301 83q-128 0 -242.5 -48t-197 -130.5t-131 -196.5t-48.5 -241zM592 483v432q0 201 166 201q82 0 121 -49.5t39 -153.5v-96h-103v103q-6 67 -8 69q-13 33 -49 33q-35 0 -48.5 -22t-13.5 -80v-461q0 -51 13.5 -71.5t46.5 -20.5q34 0 46.5 21 t12.5 75v108h103v-98q0 -100 -29 -139q-47 -66 -133 -66q-47 0 -87 24t-59 64q-18 40 -18 127z" />
<glyph unicode="&#xaa;" horiz-adv-x="313" d="M41 575v78h231v-78h-231zM57 879v143q0 113 80 113q30 0 49 -19v152q0 28 -6 37.5t-24 9.5q-17 0 -27 -12t-8 -31l2 -8v-99h-66v92q0 115 103 115q51 0 72.5 -24.5t21.5 -81.5v-439q0 -34 1.5 -42.5t8.5 -18.5h-61q-6 6 -13 31q-27 -35 -67 -35q-37 0 -51.5 25.5 t-14.5 91.5zM123 862q0 -41 27 -41q17 0 26.5 9.5t9.5 23.5v193q0 34 -34 34q-17 0 -23 -9.5t-6 -37.5v-172z" />
<glyph unicode="&#xab;" horiz-adv-x="784" d="M41 530v86l332 226v-117l-232 -152l232 -151v-117zM412 532v86l331 226v-117l-231 -152l231 -151v-117z" />
<glyph unicode="&#xac;" horiz-adv-x="671" d="M41 432v117h590v-549h-70v432h-520z" />
<glyph unicode="&#xad;" horiz-adv-x="319" d="M41 610v92h238v-92h-238z" />
<glyph unicode="&#xae;" horiz-adv-x="1503" d="M41 682q0 195 95.5 358.5t261 258t362.5 94.5q189 0 351 -96t256.5 -260t94.5 -355q0 -192 -95 -355.5t-258.5 -258.5t-356.5 -95q-144 0 -275.5 56t-227 151t-152 226.5t-56.5 275.5zM139 682q0 -166 82 -307.5t223 -224t306 -82.5q166 0 306.5 82t222 223.5t81.5 308.5 q0 166 -81 308t-220 225t-301 83q-128 0 -242.5 -48t-197 -130.5t-131 -196.5t-48.5 -241zM592 262v848h145q95 0 136.5 -48.5t41.5 -158.5v-51q0 -74 -20.5 -107t-71.5 -40q56 -19 74 -57t18 -138v-121q0 -61 4 -82.5t19 -44.5h-96q-29 32 -29 105v163q0 69 -20.5 95 t-75.5 26q-9 0 -17 -2v-387h-108zM700 752q10 -2 23 -2q51 0 72.5 24t21.5 82v62q0 54 -20 76t-70 22q-15 0 -27 -2v-262z" />
<glyph unicode="&#xaf;" horiz-adv-x="450" d="M68 1090v81h313v-81h-313z" />
<glyph unicode="&#xb0;" horiz-adv-x="391" d="M41 975v248q0 94 35.5 133t120.5 39q82 0 117.5 -39t35.5 -127v-230q0 -109 -37 -155.5t-123 -46.5q-78 0 -113.5 42t-35.5 136zM139 963q0 -41 13.5 -59.5t42.5 -18.5q30 0 41.5 17.5t11.5 62.5v254q0 53 -10.5 70.5t-42.5 17.5q-31 0 -43.5 -18.5t-12.5 -65.5v-260z " />
<glyph unicode="&#xb1;" horiz-adv-x="528" d="M41 221v92h446v-92h-446zM41 610v92h176v209h96v-209h174v-92h-174v-211h-96v211h-176z" />
<glyph unicode="&#xb2;" horiz-adv-x="274" d="M41 1094v174q0 53 23.5 77.5t72.5 24.5q46 0 71 -26.5t25 -75.5v-215q0 -35 -5 -50t-31 -51l-7 -6l-53 -74l-4 -8q-19 -23 -23 -36t-4 -46v-180h107v-57h-170v248q0 37 8 60t31 52l59 74q21 27 26 42.5t5 51.5v189q0 29 -8 41t-27 12q-35 0 -35 -49v-172h-61z" />
<glyph unicode="&#xb3;" horiz-adv-x="276" d="M41 659v146h63v-146q0 -35 7.5 -48t27.5 -13q22 0 28.5 13t6.5 55v227q0 35 -8.5 45t-36.5 10h-25v60h27q26 0 34.5 12t8.5 47v203q0 28 -7 37.5t-28 9.5q-19 0 -28.5 -13.5t-6.5 -35.5v-8v-158h-63v145q0 66 23 95.5t75 29.5q97 0 97 -102v-213q0 -37 -12.5 -52.5 t-51.5 -25.5q41 -12 52.5 -26.5t11.5 -57.5v-242q0 -110 -101 -110q-50 0 -72 27.5t-22 88.5z" />
<glyph unicode="&#xb4;" horiz-adv-x="382" d="M147 1042l111 252h107l-136 -252h-82z" />
<glyph unicode="&#xb5;" horiz-adv-x="366" d="M41 -455v1362h96v-735q0 -53 8 -72.5t31 -19.5q37 0 53 37v790h97v-907h-93v41l-6 -6q-16 -11 -34 -25q-9 -6 -52 -12h-4v-453h-96z" />
<glyph unicode="&#xb6;" horiz-adv-x="636" d="M41 1001q0 100 27 182.5t73 127.5q63 57 172 57h283v-82h-59v-1485h-64v1485h-127v-1485h-63v846h-17q-100 0 -162.5 98.5t-62.5 255.5z" />
<glyph unicode="&#xb7;" horiz-adv-x="149" d="M-31 457v205h211v-205h-211z" />
<glyph unicode="&#xb8;" horiz-adv-x="425" d="M137 -229l70 161h104l-100 -161h-74z" />
<glyph unicode="&#xb9;" horiz-adv-x="145" d="M41 547v819h63v-819h-63z" />
<glyph unicode="&#xba;" horiz-adv-x="294" d="M41 575v78h213v-78h-213zM41 879v381q0 61 25 86.5t84 25.5q55 0 79.5 -25.5t24.5 -82.5v-369q0 -72 -25.5 -102.5t-85.5 -30.5q-54 0 -78 27.5t-24 89.5zM109 870q0 -28 9 -39.5t29 -11.5q22 0 29.5 11t7.5 42v385q0 34 -7.5 46t-29.5 12t-30 -12t-8 -43v-390z" />
<glyph unicode="&#xbb;" horiz-adv-x="784" d="M41 307v117l231 151l-231 152v117l332 -226v-86zM412 305v117l231 151l-231 152v117l331 -226v-86z" />
<glyph unicode="&#xbc;" horiz-adv-x="544" d="M41 547v819h63v-819h-63zM80 0l307 1352h66l-312 -1352h-61zM309 231v56l97 532h75v-528h37v-60h-37v-231h-61v231h-111zM369 291h51l10 416z" />
<glyph unicode="&#xbd;" horiz-adv-x="616" d="M41 547v819h63v-819h-63zM80 0l307 1352h66l-312 -1352h-61zM383 729q-9 35 21.5 64.5t74.5 29.5q96 0 96 -102v-215q0 -37 -5 -51t-31 -47l-4 -7l-56 -75q-21 -29 -25.5 -42t-4.5 -46v-181h108v-57h-172v248q0 37 7.5 56.5t33.5 53.5l57 74q21 27 26 42.5t5 51.5v189 q0 29 -8 41t-27 12t-26 -10.5t-7 -38.5v-172h-61v174q0 4 -2 8z" />
<glyph unicode="&#xbe;" horiz-adv-x="618" d="M41 659v146h63v-146q0 -35 7.5 -48t27.5 -13q22 0 28.5 13t6.5 55v227q0 35 -8.5 45t-36.5 10h-25v60h27q26 0 34.5 12t8.5 47v203q0 28 -7 37.5t-28 9.5q-19 0 -28.5 -13.5t-6.5 -35.5v-8v-158h-63v145q0 66 23 95.5t75 29.5q97 0 97 -102v-213q0 -37 -12.5 -52.5 t-51.5 -25.5q41 -12 52.5 -26.5t11.5 -57.5v-242q0 -110 -101 -110q-50 0 -72 27.5t-22 88.5zM152 0l309 1352h63l-309 -1352h-63zM383 231v56l96 532h74v-528h39v-60h-39v-231h-61v231h-109zM440 291h52l10 416z" />
<glyph unicode="&#xbf;" horiz-adv-x="405" d="M41 201v235q0 57 5.5 76t39.5 76l59 82q0 3 7 10q24 34 24 49l2 27v10v381h94v-342v-8q0 -65 -8.5 -98t-34.5 -68l-53 -82q-2 -4 -6 -6q-20 -28 -24.5 -45.5t-4.5 -57.5l2 -262v-14q0 -46 13.5 -66t44.5 -20q32 0 45.5 20.5t13.5 69.5v266h102v-250v-12q6 -82 -39 -132 t-124 -50q-50 0 -87.5 20.5t-54.5 57.5q-16 40 -16 133zM156 1311q0 28 18 45.5t47 17.5t47.5 -19t18.5 -48q0 -28 -18.5 -46t-47.5 -18t-47 18.5t-18 49.5z" />
<glyph unicode="&#xc0;" horiz-adv-x="450" d="M27 0l114 1366h125l158 -1366h-113l-41 410h-108l-29 -410h-106zM84 1753h104l99 -252h-82zM170 516h88l-51 578z" />
<glyph unicode="&#xc1;" horiz-adv-x="450" d="M27 0l114 1366h125l158 -1366h-113l-41 410h-108l-29 -410h-106zM168 1501l96 252h107l-123 -252h-80zM170 516h88l-51 578z" />
<glyph unicode="&#xc2;" horiz-adv-x="450" d="M27 0l114 1366h125l158 -1366h-113l-41 410h-108l-29 -410h-106zM43 1501l135 254h68l135 -254h-100l-70 150l-68 -150h-100zM170 516h88l-51 578z" />
<glyph unicode="&#xc3;" horiz-adv-x="450" d="M27 1546q5 68 36 106t82 38q42 0 95 -48q37 -32 53 -32q27 0 39 65h76v-6v-10q-6 -57 -38 -92t-79 -35q-44 0 -86 37q-42 39 -64 39q-29 0 -37 -62h-77zM29 0l112 1366h127l156 -1366h-113l-41 410h-108l-27 -410h-106zM170 516h90l-51 578z" />
<glyph unicode="&#xc4;" horiz-adv-x="450" d="M27 0l114 1366h125l158 -1366h-113l-41 410h-108l-29 -410h-106zM45 1567q0 28 19.5 46.5t48.5 18.5q26 0 44.5 -19.5t18.5 -45.5q0 -28 -18.5 -47t-46.5 -19t-47 19t-19 47zM170 516h88l-51 578zM240 1567q0 28 19 46.5t48 18.5q26 0 45 -19.5t19 -45.5q0 -28 -19 -47 t-47 -19t-46.5 19t-18.5 47z" />
<glyph unicode="&#xc5;" horiz-adv-x="450" d="M27 0l114 1366h125l158 -1366h-113l-41 410h-108l-29 -410h-106zM74 1628q0 55 39.5 94t95.5 39q55 0 94 -39.5t39 -93.5q0 -57 -39 -96t-96 -39q-56 0 -94.5 39t-38.5 96zM145 1630q0 -26 19 -44.5t45 -18.5q25 0 43 18.5t18 44.5q0 25 -18 43.5t-43 18.5q-26 0 -45 -18 t-19 -44zM170 516h88l-51 578z" />
<glyph unicode="&#xc6;" horiz-adv-x="585" d="M12 0l209 1366h111h213v-102h-139v-600h141v-97h-141v-469h141v-98h-250v567h-90l-86 -567h-109zM223 664h74v483z" />
<glyph unicode="&#xc7;" horiz-adv-x="399" d="M41 205v966q0 201 166 201q82 0 121 -49.5t39 -153.5v-286h-103v293q-6 67 -8 69q-13 33 -49 33q-35 0 -48.5 -22t-13.5 -80v-996q0 -51 13.5 -71.5t46.5 -20.5q34 0 46.5 21t12.5 77v301h103v-292q0 -101 -29 -140q-46 -65 -133 -65q-47 0 -87 24t-59 64q-18 40 -18 127 zM80 -229l70 161h104l-100 -161h-74z" />
<glyph unicode="&#xc8;" horiz-adv-x="329" d="M41 0v1366h246v-102h-137v-514h139v-97h-139v-555h139v-98h-248zM45 1753h107l96 -252h-80z" />
<glyph unicode="&#xc9;" horiz-adv-x="329" d="M41 0v1366h246v-102h-137v-514h139v-97h-139v-555h139v-98h-248zM129 1501l98 252h105l-121 -252h-82z" />
<glyph unicode="&#xca;" horiz-adv-x="329" d="M-4 1501l135 254h70l135 -254h-100l-70 150l-70 -150h-100zM41 0v1366h246v-102h-137v-514h139v-97h-139v-555h139v-98h-248z" />
<glyph unicode="&#xcb;" horiz-adv-x="329" d="M2 1567q0 28 19.5 46.5t48.5 18.5q26 0 44.5 -19.5t18.5 -45.5q0 -28 -18.5 -47t-46.5 -19t-47 19t-19 47zM41 0v1366h246v-102h-137v-514h139v-97h-139v-555h139v-98h-248zM195 1567q0 28 19 46.5t48 18.5q26 0 45 -19.5t19 -45.5q0 -28 -19 -47t-47 -19t-46.5 19 t-18.5 47z" />
<glyph unicode="&#xcc;" horiz-adv-x="186" d="M-27 1753h107l96 -252h-82zM41 0v1366h104v-1366h-104z" />
<glyph unicode="&#xcd;" horiz-adv-x="186" d="M41 0v1366h104v-1366h-104zM57 1501l99 252h104l-121 -252h-82z" />
<glyph unicode="&#xce;" horiz-adv-x="186" d="M-76 1501l135 254h70l135 -254h-100l-70 150l-69 -150h-101zM41 0v1366h104v-1366h-104z" />
<glyph unicode="&#xcf;" horiz-adv-x="186" d="M-59 1567q0 28 19 46.5t48 18.5q26 0 45 -19.5t19 -45.5q0 -28 -19 -47t-47 -19t-46.5 19t-18.5 47zM41 0v1366h104v-1366h-104zM117 1567q0 28 19 46.5t48 18.5q26 0 45 -19.5t19 -45.5q0 -28 -19 -47t-47 -19t-46.5 19t-18.5 47z" />
<glyph unicode="&#xd0;" horiz-adv-x="419" d="M14 645v82h39v639h154q96 0 134 -44t38 -153v-944q0 -131 -48 -178t-181 -47h-97v645h-39zM158 100h28q54 0 70 22.5t16 94.5v961q0 59 -16 76.5t-68 17.5h-30v-545h67v-82h-67v-545z" />
<glyph unicode="&#xd1;" horiz-adv-x="454" d="M41 0v1366h113l163 -973v973h97v-1366h-103l-172 1001v-1001h-98zM53 1546q6 68 37 106t82 38q24 0 43.5 -10t50.5 -38q37 -32 56 -32q24 0 36 65h78l-2 -6v-10q-6 -57 -38 -92t-79 -35q-42 0 -84 37q-44 39 -65 39q-26 0 -37 -62h-78z" />
<glyph unicode="&#xd2;" horiz-adv-x="423" d="M41 207v956q0 78 25 129q20 37 62 59.5t91 22.5q51 0 90 -21.5t56 -58.5q18 -38 18 -125v-970q0 -207 -170 -207q-56 0 -102 28.5t-58 71.5q-12 41 -12 115zM115 1753h104l98 -252h-81zM143 178q0 -52 16.5 -76t51.5 -24q34 0 49.5 25.5t15.5 82.5v988q0 62 -12.5 82 t-52.5 20t-54 -25t-14 -98v-975z" />
<glyph unicode="&#xd3;" horiz-adv-x="423" d="M41 207v956q0 78 25 129q20 37 62 59.5t91 22.5q51 0 90 -21.5t56 -58.5q18 -38 18 -125v-970q0 -207 -170 -207q-56 0 -102 28.5t-58 71.5q-12 41 -12 115zM143 178q0 -52 16.5 -76t51.5 -24q34 0 49.5 25.5t15.5 82.5v988q0 62 -12.5 82t-52.5 20t-54 -25t-14 -98v-975 zM176 1501l98 252h105l-121 -252h-82z" />
<glyph unicode="&#xd4;" horiz-adv-x="423" d="M41 207v956q0 78 25 129q20 37 62 59.5t91 22.5q51 0 90 -21.5t56 -58.5q18 -38 18 -125v-970q0 -207 -170 -207q-56 0 -102 28.5t-58 71.5q-12 41 -12 115zM51 1501l135 254h70l135 -254h-100l-70 150l-69 -150h-101zM143 178q0 -52 16.5 -76t51.5 -24q34 0 49.5 25.5 t15.5 82.5v988q0 62 -12.5 82t-52.5 20t-54 -25t-14 -98v-975z" />
<glyph unicode="&#xd5;" horiz-adv-x="423" d="M31 1546q4 67 36 105.5t83 38.5q41 0 94 -48q37 -32 53 -32q27 0 39 65h76v-6v-10q-6 -57 -38 -92t-79 -35q-44 0 -86 37q-42 39 -64 39q-28 0 -36 -62h-78zM41 207v956q0 78 25 129q20 37 62 59.5t93 22.5t90 -21.5t56 -58.5q18 -38 18 -125v-970q0 -207 -170 -207 q-57 0 -103.5 28.5t-58.5 71.5q-12 41 -12 115zM143 178q0 -52 16.5 -76t51.5 -24t51.5 25.5t16.5 82.5v988q0 62 -13.5 82t-54.5 20q-40 0 -54 -25t-14 -98v-975z" />
<glyph unicode="&#xd6;" horiz-adv-x="423" d="M41 207v956q0 78 25 129q20 37 62 59.5t91 22.5q51 0 90 -21.5t56 -58.5q18 -38 18 -125v-970q0 -207 -170 -207q-56 0 -102 28.5t-58 71.5q-12 41 -12 115zM49 1567q0 28 19.5 46.5t48.5 18.5q26 0 44.5 -19.5t18.5 -45.5q0 -28 -18.5 -47t-46.5 -19t-47 19t-19 47z M143 178q0 -52 16.5 -76t51.5 -24q34 0 49.5 25.5t15.5 82.5v988q0 62 -12.5 82t-52.5 20t-54 -25t-14 -98v-975zM244 1567q0 28 19 46.5t48 18.5q26 0 45 -19.5t19 -45.5q0 -28 -19 -47t-47 -19t-46.5 19t-18.5 47z" />
<glyph unicode="&#xd7;" horiz-adv-x="528" d="M41 500l156 155l-156 156l68 70l155 -156l156 156l67 -70l-155 -156l155 -155l-67 -68l-156 154l-155 -154z" />
<glyph unicode="&#xd8;" horiz-adv-x="438" d="M27 10l26 115q-4 27 -4 82v956q0 78 25 129q20 37 62 59.5t91 22.5q67 0 113 -37l12 54l58 -13l-27 -114q8 -41 8 -95v-970q0 -102 -42.5 -154.5t-125.5 -52.5q-74 0 -125 45l-10 -41zM152 178q0 -53 16 -76.5t51 -23.5q34 0 50 25.5t16 82.5v652l-133 -570v-90zM152 543 l133 563v68q0 61 -13 81.5t-53 20.5t-53.5 -25t-13.5 -98v-610z" />
<glyph unicode="&#xd9;" horiz-adv-x="421" d="M41 221v1145h106v-1165q0 -63 14.5 -87t51.5 -24t49 24.5t12 96.5v1155h107v-1157q0 -121 -33 -160q-45 -57 -139 -57q-48 0 -86 19t-57 52q-25 42 -25 158zM100 1753h105l98 -252h-82z" />
<glyph unicode="&#xda;" horiz-adv-x="421" d="M41 221v1145h106v-1165q0 -63 14.5 -87t51.5 -24t49 24.5t12 96.5v1155h107v-1157q0 -121 -33 -160q-45 -57 -139 -57q-48 0 -86 19t-57 52q-25 42 -25 158zM180 1501l96 252h107l-123 -252h-80z" />
<glyph unicode="&#xdb;" horiz-adv-x="421" d="M41 221v1145h106v-1165q0 -63 14.5 -87t51.5 -24t49 24.5t12 96.5v1155h107v-1157q0 -121 -33 -160q-45 -57 -139 -57q-48 0 -86 19t-57 52q-25 42 -25 158zM47 1501l135 254h68l135 -254h-100l-70 150l-68 -150h-100z" />
<glyph unicode="&#xdc;" horiz-adv-x="421" d="M41 221v1145h106v-1165q0 -63 14.5 -87t51.5 -24t49 24.5t12 96.5v1155h107v-1157q0 -121 -33 -160q-45 -57 -139 -57q-48 0 -86 19t-57 52q-25 42 -25 158zM49 1567q0 28 19.5 46.5t48.5 18.5q26 0 44.5 -19.5t18.5 -45.5q0 -28 -18.5 -47t-46.5 -19t-47 19t-19 47z M242 1567q0 28 19 46.5t48 18.5q26 0 45 -19.5t19 -45.5q0 -28 -19 -47t-47 -19t-46.5 19t-18.5 47z" />
<glyph unicode="&#xdd;" horiz-adv-x="415" d="M27 1366h104l78 -612l78 612h100l-131 -799v-567h-100v567zM170 1501l98 252h107l-123 -252h-82z" />
<glyph unicode="&#xde;" horiz-adv-x="397" d="M41 0v1366h104v-291h35q99 0 142 -41t43 -135v-397q0 -98 -41 -144.5t-127 -46.5h-47v-311h-109zM150 408h34q50 0 64 17.5t14 80.5v377q0 57 -17.5 77.5t-66.5 20.5q-16 0 -28 -2v-571z" />
<glyph unicode="&#xdf;" horiz-adv-x="382" d="M41 545v209q0 88 35.5 127t113.5 39q112 0 140 -74q12 -34 12 -92v-158h-102v154q0 51 -9 66t-38 15t-40.5 -19t-11.5 -67v-178q0 -41 10.5 -50t59.5 -9q70 0 97.5 -28.5t27.5 -102.5v-199q0 -93 -21 -127q-35 -59 -125 -59q-78 0 -112.5 40.5t-34.5 131.5v147h98v-147 q0 -6 -2 -14q-3 -33 11 -53.5t40 -20.5q29 0 38.5 19.5t9.5 82.5v176q0 44 -14 53.5t-83 12.5q-52 1 -76 31.5t-24 93.5z" />
<glyph unicode="&#xe0;" horiz-adv-x="382" d="M39 1294h106l111 -252h-82zM41 172v215q0 170 117 170q43 0 69 -29v232q0 41 -9 56t-34 15t-38.5 -18.5t-10.5 -46.5l2 -12v-150h-96v141q0 84 25 119q43 56 124 56q41 0 75.5 -18.5t47.5 -49.5q13 -29 13 -96v-662q0 -54 2 -66.5t12 -27.5h-88q-8 11 -19 47 q-41 -53 -96 -53q-58 0 -84 53q-12 30 -12 125zM137 145q0 -34 8.5 -47.5t30.5 -13.5t36.5 14t14.5 37v289q0 25 -13 39t-36 14t-32 -15t-9 -56v-261z" />
<glyph unicode="&#xe1;" horiz-adv-x="382" d="M41 172v215q0 170 117 170q45 0 71 -29v232q0 41 -9.5 56t-35.5 15q-25 0 -38.5 -18.5t-10.5 -46.5l2 -12v-150h-96v141q0 84 25 119q43 56 124 56q43 0 77.5 -18.5t47.5 -49.5q13 -29 13 -96v-662q0 -54 2 -66.5t12 -27.5h-88q-6 8 -18 47q-41 -53 -99 -53q-60 0 -82 53 q-14 28 -14 125zM137 145q0 -34 8.5 -47.5t30.5 -13.5q23 0 38 14t15 37v289q0 25 -13 39t-36 14q-25 0 -34 -15t-9 -56v-261zM147 1042l111 252h104l-135 -252h-80z" />
<glyph unicode="&#xe2;" horiz-adv-x="382" d="M23 1042l135 252h69l135 -252h-100l-69 148l-70 -148h-100zM41 604v141q0 175 152 175q41 0 75 -18.5t47 -49.5q13 -29 13 -96v-662q0 -54 2 -66.5t12 -27.5h-88q-6 8 -18 47q-41 -53 -99 -53q-56 0 -82 53q-12 30 -12 125v215q0 170 117 170q43 0 69 -29v232q0 41 -9 56 t-34 15q-28 0 -38.5 -17t-10.5 -60v-150h-96zM139 145q0 -34 8.5 -47.5t30.5 -13.5t36.5 14t14.5 37v289q0 25 -13 39t-36 14t-32 -15t-9 -56v-261z" />
<glyph unicode="&#xe3;" horiz-adv-x="382" d="M0 1083q4 67 36 105.5t83 38.5q24 0 44 -10t50 -37q38 -33 53 -33q27 0 39 65h76v-6v-10q-6 -57 -38 -92t-79 -35q-44 0 -86 37q-42 39 -63 39q-29 0 -37 -62h-78zM41 172v215q0 170 117 170q45 0 71 -29v232q0 41 -9.5 56t-35.5 15q-25 0 -38.5 -18.5t-10.5 -46.5l2 -12 v-150h-96v141q0 84 25 119q43 56 124 56q43 0 77.5 -18.5t47.5 -49.5q13 -29 13 -96v-662q0 -54 2 -66.5t12 -27.5h-88q-6 8 -18 47q-41 -53 -99 -53t-84 53q-12 30 -12 125zM137 145q0 -34 8.5 -47.5t30.5 -13.5q23 0 38 14t15 37v289q0 25 -13 39t-36 14q-25 0 -34 -15 t-9 -56v-261z" />
<glyph unicode="&#xe4;" horiz-adv-x="382" d="M16 1135q0 28 19.5 46.5t48.5 18.5q26 0 44.5 -19.5t18.5 -45.5q0 -28 -18.5 -47t-46.5 -19t-47 19t-19 47zM41 172v215q0 170 117 170q45 0 71 -29v232q0 41 -9.5 56t-35.5 15q-25 0 -38.5 -18.5t-10.5 -46.5l2 -12v-150h-96v141q0 84 25 119q43 56 124 56 q43 0 77.5 -18.5t47.5 -49.5q13 -29 13 -96v-662q0 -54 2 -66.5t12 -27.5h-88q-6 8 -18 47q-41 -53 -99 -53t-84 53q-12 30 -12 125zM137 145q0 -34 8.5 -47.5t30.5 -13.5q23 0 38 14t15 37v289q0 25 -13 39t-36 14q-25 0 -34 -15t-9 -56v-261zM236 1135q0 28 19 46.5 t48 18.5q26 0 45 -19.5t19 -45.5q0 -28 -19 -47t-47 -19t-46.5 19t-18.5 47z" />
<glyph unicode="&#xe5;" horiz-adv-x="382" d="M41 172v215q0 170 117 170q45 0 71 -29v232q0 41 -9.5 56t-35.5 15q-25 0 -38.5 -18.5t-10.5 -46.5l2 -12v-150h-96v141q0 84 25 119q43 56 124 56q43 0 77.5 -18.5t47.5 -49.5q13 -29 13 -96v-662q0 -54 2 -66.5t12 -27.5h-88q-6 8 -18 47q-41 -53 -99 -53q-60 0 -82 53 q-14 28 -14 125zM57 1169q0 55 40 94.5t96 39.5q55 0 94 -40t39 -94q0 -57 -39.5 -96t-96.5 -39q-56 0 -94.5 39t-38.5 96zM129 1169q0 -26 17.5 -44.5t43.5 -18.5t45 18.5t19 44.5q0 25 -18 43.5t-43 18.5q-26 0 -45 -18t-19 -44zM137 145q0 -34 8.5 -47.5t30.5 -13.5 q23 0 38 14t15 37v289q0 25 -13 39t-36 14q-25 0 -34 -15t-9 -56v-261z" />
<glyph unicode="&#xe6;" horiz-adv-x="569" d="M41 172v195q0 91 31 127q15 19 47.5 32t54.5 9h4h51v225q0 41 -9.5 56t-35.5 15q-25 0 -38.5 -18.5t-10.5 -46.5l2 -12v-150h-96v141q0 85 25 117q42 58 124 58q49 0 89 -25q39 33 108 33q139 0 139 -131v-359h-194v-270q0 -53 10 -70.5t41 -17.5q28 0 36.5 16t8.5 68 v188h100v-200q0 -160 -147 -160q-88 0 -125 55q-56 -53 -121 -53q-26 0 -48 14t-32 39q-14 28 -14 125zM137 145q0 -34 8.5 -47.5t30.5 -13.5q23 0 38 14.5t15 36.5v303h-47q-26 0 -35.5 -14.5t-9.5 -56.5v-222zM332 532h96v230q0 43 -8.5 56t-36.5 13t-39.5 -19.5 t-11.5 -66.5v-213z" />
<glyph unicode="&#xe7;" horiz-adv-x="378" d="M41 172v535q0 104 22 141q20 32 55.5 51t76.5 19q143 0 143 -162v-187h-98v168q-2 17 -4 32t-4 23l-1 7q-12 26 -43 26q-28 0 -38.5 -16t-10.5 -59v-607q0 -39 12 -56t39 -17q28 0 39 17.5t11 66.5v172h98v-150q0 -102 -36.5 -150.5t-113.5 -48.5q-47 0 -82.5 20.5 t-50.5 57.5q-14 35 -14 117zM82 -229l70 161h104l-98 -161h-76z" />
<glyph unicode="&#xe8;" horiz-adv-x="378" d="M41 156v602q0 87 38 128.5t118 41.5q139 0 139 -131v-359h-193v-270q0 -52 10.5 -70t41.5 -18q29 0 37 15t8 69v188h98v-200q0 -160 -145 -160q-152 0 -152 164zM59 1294h107l110 -252h-81zM141 756l2 -11v-213h95v230v10q2 31 -8 45t-35 14q-26 0 -39 -16 q-19 -27 -15 -59z" />
<glyph unicode="&#xe9;" horiz-adv-x="378" d="M41 156v602q0 87 38 128.5t118 41.5q139 0 139 -131v-359h-193v-270q0 -52 10.5 -70t41.5 -18q29 0 37 15t8 69v188h98v-200q0 -160 -145 -160q-152 0 -152 164zM141 756l2 -11v-213h95v230v10q2 31 -8 45t-35 14q-26 0 -39 -16q-19 -27 -15 -59zM154 1042l110 252h107 l-135 -252h-82z" />
<glyph unicode="&#xea;" horiz-adv-x="378" d="M20 1042l136 252h69l135 -252h-100l-70 148l-69 -148h-101zM41 156v602q0 87 38 128.5t118 41.5q139 0 139 -131v-359h-193v-270q0 -52 10.5 -70t41.5 -18q29 0 37 15t8 69v188h98v-200q0 -160 -145 -160q-152 0 -152 164zM141 756l2 -11v-213h95v230v10q2 31 -8 45 t-35 14q-26 0 -39 -16q-19 -27 -15 -59z" />
<glyph unicode="&#xeb;" horiz-adv-x="378" d="M14 1135q0 28 19.5 46.5t48.5 18.5q26 0 44.5 -19.5t18.5 -45.5q0 -28 -18.5 -47t-46.5 -19t-47 19t-19 47zM41 156v602q0 86 38.5 128t117.5 42q139 0 139 -131v-359h-193v-270q0 -52 10.5 -70t39.5 -18q28 0 37.5 17t9.5 67v188h98v-200q0 -160 -145 -160 q-152 0 -152 164zM141 756l2 -11v-213h93v230v10q6 59 -43 59q-24 0 -37 -16q-7 -10 -12 -29t-3 -30zM233 1135q0 28 19.5 46.5t48.5 18.5q26 0 45 -19.5t19 -45.5q0 -28 -19 -47t-47 -19t-47 19t-19 47z" />
<glyph unicode="&#xec;" horiz-adv-x="190" d="M-63 1294h106l111 -252h-82zM49 0v907h96v-907h-96z" />
<glyph unicode="&#xed;" horiz-adv-x="190" d="M47 0v907h96v-907h-96zM51 1042l111 252h106l-135 -252h-82z" />
<glyph unicode="&#xee;" horiz-adv-x="190" d="M-74 1042l135 252h70l135 -252h-100l-70 148l-69 -148h-101zM47 0v907h96v-907h-96z" />
<glyph unicode="&#xef;" horiz-adv-x="190" d="M-63 1135q0 28 19 46.5t48 18.5q26 0 45 -19.5t19 -45.5q0 -28 -19 -47t-47 -19t-46.5 19t-18.5 47zM49 0v907h96v-907h-96zM125 1135q0 28 19.5 46.5t48.5 18.5q26 0 44.5 -19.5t18.5 -45.5q0 -28 -19 -47t-47 -19t-46.5 19t-18.5 47z" />
<glyph unicode="&#xf0;" horiz-adv-x="391" d="M41 170v578q0 94 36 133t124 39q24 0 49 -5v156q0 78 -8 117l-92 -78l-58 66l98 84q-40 18 -96 18l23 84q14 4 41 4q66 0 116 -35l43 37l56 -65l-45 -39q22 -51 22 -152v-917v-13q6 -93 -35 -141.5t-125 -48.5q-78 0 -113.5 42t-35.5 136zM139 158q0 -41 13.5 -59.5 t44.5 -18.5q30 0 41.5 17.5t11.5 62.5v585q0 51 -11 68.5t-44 17.5q-31 0 -43.5 -18t-12.5 -63v-592z" />
<glyph unicode="&#xf1;" horiz-adv-x="366" d="M-8 1083q4 67 36 105.5t83 38.5q24 0 44 -10t50 -37q38 -33 53 -33q27 0 39 65h76v-6v-10q-6 -57 -38 -92t-79 -35q-44 0 -86 37q-42 39 -64 39q-28 0 -36 -62h-78zM41 0v907h92v-35l10 9q29 22 42 27t38 5q103 0 103 -143v-770h-97v739q0 54 -8 73t-33 19q-39 0 -51 -51 v-780h-96z" />
<glyph unicode="&#xf2;" horiz-adv-x="391" d="M41 170v578q0 94 35.5 133t120.5 39q81 0 117 -38.5t36 -125.5v-561q0 -109 -37 -156t-123 -47q-78 0 -113.5 42t-35.5 136zM57 1294h107l110 -252h-81zM139 158q0 -41 13.5 -59.5t42.5 -18.5q30 0 41.5 17.5t11.5 62.5v585q0 51 -10.5 68.5t-42.5 17.5q-31 0 -43.5 -18 t-12.5 -63v-592z" />
<glyph unicode="&#xf3;" horiz-adv-x="391" d="M41 170v578q0 94 35.5 133t120.5 39q81 0 117 -38.5t36 -125.5v-561q0 -109 -37 -156t-123 -47q-78 0 -113.5 42t-35.5 136zM139 158q0 -41 13.5 -59.5t42.5 -18.5q30 0 41.5 17.5t11.5 62.5v585q0 51 -10.5 68.5t-42.5 17.5q-31 0 -43.5 -18t-12.5 -63v-592zM152 1042 l110 252h107l-136 -252h-81z" />
<glyph unicode="&#xf4;" horiz-adv-x="391" d="M27 1042l135 252h69l136 -252h-101l-69 148l-70 -148h-100zM41 170v578q0 94 35.5 133t120.5 39q81 0 117 -38.5t36 -125.5v-561q0 -109 -37 -156t-123 -47q-78 0 -113.5 42t-35.5 136zM139 158q0 -41 13.5 -59.5t42.5 -18.5q30 0 41.5 17.5t11.5 62.5v585 q0 51 -10.5 68.5t-42.5 17.5q-31 0 -43.5 -18t-12.5 -63v-592z" />
<glyph unicode="&#xf5;" horiz-adv-x="391" d="M6 1083q4 67 36 105.5t83 38.5q24 0 44 -10t50 -37q38 -33 53 -33q27 0 39 65h76v-6v-10q-6 -57 -38 -92t-79 -35q-44 0 -86 37q-42 39 -63 39q-29 0 -37 -62h-78zM43 170v578q0 94 35.5 133t120.5 39q81 0 117 -38.5t36 -125.5v-561q0 -109 -36.5 -156t-122.5 -47 q-78 0 -114 42.5t-36 135.5zM141 158q0 -41 13.5 -59.5t42.5 -18.5q30 0 41.5 17.5t11.5 62.5v585q0 51 -10.5 68.5t-42.5 17.5q-31 0 -43.5 -18t-12.5 -63v-592z" />
<glyph unicode="&#xf6;" horiz-adv-x="391" d="M20 1135q0 28 19.5 46.5t48.5 18.5q26 0 45 -19.5t19 -45.5q0 -28 -19 -47t-47 -19t-47 19t-19 47zM41 170v578q0 94 35.5 133t120.5 39q81 0 117 -38.5t36 -125.5v-561q0 -109 -37 -156t-123 -47q-78 0 -113.5 42t-35.5 136zM139 158q0 -41 13.5 -59.5t42.5 -18.5 q30 0 41.5 17.5t11.5 62.5v585q0 51 -10.5 68.5t-42.5 17.5q-31 0 -43.5 -18t-12.5 -63v-592zM240 1135q0 28 19 46.5t48 18.5q26 0 45 -19.5t19 -45.5q0 -28 -19 -47t-47 -19t-46.5 19t-18.5 47z" />
<glyph unicode="&#xf7;" horiz-adv-x="528" d="M41 610v92h446v-92h-446zM203 410q0 28 16.5 44.5t44.5 16.5t44 -16.5t16 -44.5q0 -26 -17 -43t-43 -17q-28 0 -44.5 17t-16.5 43zM205 901q0 28 16.5 45t44.5 17t44 -17t16 -45q0 -26 -17 -42.5t-43 -16.5q-28 0 -44.5 16.5t-16.5 42.5z" />
<glyph unicode="&#xf8;" horiz-adv-x="399" d="M27 -25l28 97q-12 40 -12 98v578q0 94 35.5 133t118.5 39q60 0 102 -25l18 66l56 -19l-31 -104q10 -36 10 -82v-561q0 -109 -36.5 -156t-122.5 -47q-51 0 -91 22l-18 -57zM141 152q0 -72 56 -72q30 0 41.5 17.5t11.5 62.5v366zM141 362l109 371v12q0 51 -10.5 68.5 t-42.5 17.5q-31 0 -43.5 -18t-12.5 -63v-388z" />
<glyph unicode="&#xf9;" horiz-adv-x="366" d="M41 139v768h96v-735q0 -53 8 -72.5t31 -19.5q37 0 53 37v790h97v-907h-93v41l-6 -6q-16 -11 -34 -25q-18 -12 -54 -12q-98 0 -98 141zM53 1294h107l110 -252h-82z" />
<glyph unicode="&#xfa;" horiz-adv-x="366" d="M41 139v768h96v-735q0 -53 8 -72.5t31 -19.5q37 0 53 37v790h97v-907h-93v41l-6 -6q-16 -11 -34 -25q-18 -12 -54 -12q-98 0 -98 141zM139 1042l111 252h106l-135 -252h-82z" />
<glyph unicode="&#xfb;" horiz-adv-x="366" d="M14 1042l136 252h69l135 -252h-100l-70 148l-69 -148h-101zM41 139v768h96v-735q0 -53 8 -72.5t31 -19.5q37 0 53 37v790h97v-907h-93v41l-6 -6q-16 -11 -34 -25q-18 -12 -54 -12q-98 0 -98 141z" />
<glyph unicode="&#xfc;" horiz-adv-x="366" d="M8 1135q0 28 19.5 46.5t48.5 18.5q26 0 44.5 -19.5t18.5 -45.5q0 -28 -18.5 -47t-46.5 -19t-47 19t-19 47zM41 139v768h96v-735q0 -53 8 -72.5t31 -19.5q37 0 53 37v790h97v-907h-95v41q-46 -43 -92 -43q-98 0 -98 141zM227 1135q0 28 19.5 46.5t48.5 18.5 q26 0 44.5 -19.5t18.5 -45.5q0 -28 -18.5 -47t-46.5 -19t-47 19t-19 47z" />
<glyph unicode="&#xfd;" horiz-adv-x="374" d="M20 907h105l72 -661l55 661h102l-157 -1356h-91l50 422zM160 1042l110 252h107l-135 -252h-82z" />
<glyph unicode="&#xfe;" horiz-adv-x="370" d="M41 -455v1821h96v-496q42 39 92 39q57 0 78.5 -36t22.5 -136v-571q0 -88 -25.5 -125t-85.5 -37q-42 0 -82 35v-39v-455h-96zM139 135q3 -49 49 -49q26 0 35.5 20t9.5 74v565q0 44 -4 54q-10 30 -43 30q-17 0 -30.5 -10.5t-16.5 -25.5v-658z" />
<glyph unicode="&#xff;" horiz-adv-x="374" d="M20 907h105l72 -661l55 661h102l-157 -1356h-91l50 422zM20 1135q0 28 19.5 46.5t48.5 18.5q26 0 45 -19.5t19 -45.5q0 -28 -19 -47t-47 -19t-47 19t-19 47zM240 1135q0 28 19 46.5t48 18.5q26 0 45 -19.5t19 -45.5q0 -28 -19 -47t-47 -19t-46.5 19t-18.5 47z" />
<glyph unicode="&#x152;" horiz-adv-x="565" d="M41 205v958q0 80 25 129q20 37 62 59.5t91 22.5q33 0 57 -8h246v-102h-137v-514h139v-97h-139v-555h139v-98h-248v2q-29 -10 -63 -10q-56 0 -102 28.5t-58 71.5q-12 41 -12 113zM143 178q0 -52 16.5 -76t51.5 -24q34 0 49.5 25.5t15.5 82.5v988q0 62 -12.5 82t-52.5 20 t-54 -25t-14 -98v-975z" />
<glyph unicode="&#x153;" horiz-adv-x="587" d="M41 170v578q0 94 35.5 133t120.5 39q63 0 102 -25q39 33 107 33q139 0 139 -131v-359h-193v-270q0 -53 10 -70.5t39 -17.5q28 0 38 17.5t10 66.5v188h98v-200q0 -160 -146 -160q-60 0 -102 31q-48 -31 -109 -31q-78 0 -113.5 42t-35.5 136zM139 158q0 -41 13.5 -59.5 t44.5 -18.5q30 0 41.5 17.5t11.5 62.5v585q0 51 -11 68.5t-44 17.5q-31 0 -43.5 -18t-12.5 -63v-592zM350 756l2 -11v-213h92v230v10q6 59 -43 59q-23 0 -36 -16q-7 -10 -12 -29t-3 -30z" />
<glyph unicode="&#x178;" horiz-adv-x="415" d="M27 1366h104l78 -612l78 612h100l-131 -799v-567h-100v567zM45 1567q0 28 19.5 46.5t48.5 18.5q26 0 44.5 -19.5t18.5 -45.5q0 -28 -18.5 -47t-46.5 -19t-47 19t-19 47zM238 1567q0 28 19 46.5t48 18.5q26 0 45 -19.5t19 -45.5q0 -28 -19 -47t-47 -19t-46.5 19t-18.5 47z " />
<glyph unicode="&#x2c6;" horiz-adv-x="475" d="M68 1042l135 252h69l136 -252h-101l-69 148l-70 -148h-100z" />
<glyph unicode="&#x2dc;" horiz-adv-x="518" d="M68 1083q5 68 36 106t82 38q43 0 95 -47q38 -33 53 -33q27 0 39 65h76v-6v-10q-6 -57 -38 -92t-79 -35q-44 0 -86 37q-42 39 -64 39q-29 0 -37 -62h-77z" />
<glyph unicode="&#x2000;" horiz-adv-x="880" />
<glyph unicode="&#x2001;" horiz-adv-x="1761" />
<glyph unicode="&#x2002;" horiz-adv-x="880" />
<glyph unicode="&#x2003;" horiz-adv-x="1761" />
<glyph unicode="&#x2004;" horiz-adv-x="587" />
<glyph unicode="&#x2005;" horiz-adv-x="440" />
<glyph unicode="&#x2006;" horiz-adv-x="293" />
<glyph unicode="&#x2007;" horiz-adv-x="293" />
<glyph unicode="&#x2008;" horiz-adv-x="220" />
<glyph unicode="&#x2009;" horiz-adv-x="352" />
<glyph unicode="&#x200a;" horiz-adv-x="97" />
<glyph unicode="&#x2010;" horiz-adv-x="319" d="M41 610v92h238v-92h-238z" />
<glyph unicode="&#x2011;" horiz-adv-x="319" d="M41 610v92h238v-92h-238z" />
<glyph unicode="&#x2012;" horiz-adv-x="319" d="M41 610v92h238v-92h-238z" />
<glyph unicode="&#x2013;" horiz-adv-x="366" d="M41 610v92h285v-92h-285z" />
<glyph unicode="&#x2014;" horiz-adv-x="524" d="M0 610v92h524v-92h-524z" />
<glyph unicode="&#x2018;" horiz-adv-x="167" d="M43 1141v225h86v-225h-86z" />
<glyph unicode="&#x2019;" horiz-adv-x="167" d="M43 1141v225h86v-225h-86z" />
<glyph unicode="&#x201a;" horiz-adv-x="184" d="M37 -82l26 197h74l-47 -197h-53z" />
<glyph unicode="&#x201c;" horiz-adv-x="294" d="M43 1141v225h86v-225h-86zM168 1141v225h86v-225h-86z" />
<glyph unicode="&#x201d;" horiz-adv-x="294" d="M43 1141v225h86v-225h-86zM168 1141v225h86v-225h-86z" />
<glyph unicode="&#x201e;" horiz-adv-x="317" d="M37 -82l26 197h74l-47 -197h-53zM170 -82l29 197h71l-45 -197h-55z" />
<glyph unicode="&#x2022;" horiz-adv-x="385" d="M78 696q0 47 34 81t81 34q46 0 79 -33.5t33 -79.5q0 -47 -33 -80.5t-79 -33.5q-47 0 -81 33t-34 79z" />
<glyph unicode="&#x2026;" horiz-adv-x="550" d="M41 55q0 28 16.5 45t44.5 17t44 -17t16 -45q0 -26 -17 -42.5t-43 -16.5q-28 0 -44.5 16.5t-16.5 42.5zM215 55q0 28 16.5 45t42.5 17q29 0 45.5 -17t16.5 -45q0 -26 -17 -42.5t-43 -16.5q-28 0 -44.5 16.5t-16.5 42.5zM389 55q0 28 17 45t45 17q27 0 43 -17t16 -45 q0 -26 -16.5 -42.5t-42.5 -16.5q-28 0 -45 16.5t-17 42.5z" />
<glyph unicode="&#x202f;" horiz-adv-x="352" />
<glyph unicode="&#x2039;" horiz-adv-x="413" d="M41 532v86l332 226v-117l-232 -152l232 -151v-117z" />
<glyph unicode="&#x203a;" horiz-adv-x="413" d="M41 307v117l231 151l-231 152v117l332 -226v-86z" />
<glyph unicode="&#x205f;" horiz-adv-x="440" />
<glyph unicode="&#x20ac;" horiz-adv-x="442" d="M0 565l12 82h64v86h-76l12 82h64v356q0 201 166 201q82 0 120.5 -49.5t38.5 -153.5v-208h-102v217q-6 65 -8 67q-13 33 -49 33q-35 0 -48.5 -22t-13.5 -80v-361h154l-12 -82h-142v-86h129l-10 -82h-119v-385q0 -51 13.5 -71.5t46.5 -20.5q34 0 46.5 21t12.5 75v217h102 v-208q0 -100 -28 -138q-46 -65 -133 -65q-48 0 -87.5 23.5t-58.5 64.5q-18 38 -18 127v360h-76z" />
<glyph unicode="&#x2122;" horiz-adv-x="1052" d="M41 1264v102h399v-102h-161v-717h-76v717h-162zM498 547v819h108l148 -602l153 602h105v-819h-68v700l-170 -700h-43l-164 700v-700h-69z" />
<glyph unicode="&#xe000;" horiz-adv-x="911" d="M0 0v911h911v-911h-911z" />
</font>
</defs>
</svg>
